<?xml version="1.0" encoding="UTF-8"?>
<svg width="448px" height="448px" viewBox="0 0 448 448" version="1.1" xmlns="http://www.w3.org/2000/svg" xmlns:xlink="http://www.w3.org/1999/xlink">
    <!-- Generator: Sketch 55.2 (78181) - https://sketchapp.com -->
    <title>phone-square-solid</title>
    <desc>Created with Sketch.</desc>
    <g id="Page-1" stroke="none" stroke-width="1" fill="none" fill-rule="evenodd">
        <g id="phone-square-solid" fill="#000000" fill-rule="nonzero">
            <path d="M400,0 L48,0 C21.49,0 0,21.49 0,48 L0,400 C0,426.51 21.49,448 48,448 L400,448 C426.51,448 448,426.51 448,400 L448,48 C448,21.49 426.51,0 400,0 Z M94,384 C86.967,384 80.943,379.127 79.384,372.373 L64.386,307.373 C62.7537137,300.29969 66.4207548,293.072583 73.093,290.213 L143.091,260.214 C149.233778,257.581564 156.377135,259.3305 160.609,264.503 L191.606,302.388 C240.55,279.425 279.903,239.53 302.387,191.608 L264.501,160.611 C259.328799,156.378946 257.579916,149.235807 260.212,143.093 L290.212,73.095 C293.071583,66.4227548 300.29869,62.7557137 307.372,64.388 L372.372,79.386 C379.178268,80.9550988 384,87.015205 384,94 C384,254.292 254.055,384 94,384 Z" id="Shape"></path>
        </g>
    </g>
</svg>